<svg xmlns="http://www.w3.org/2000/svg" viewBox="0 0 1944 1080"><defs><style>.cls-1{fill:#f95959;}.cls-2{fill:#4849a1;}.cls-3{fill:#414291;}.cls-4{fill:#6364af;}</style></defs><g id="Layer_2" data-name="Layer 2"><g id="Layer_1-2" data-name="Layer 1"><path class="cls-1" d="M216,0c0,119.29-96.71,216-216,216V0Z"/><path class="cls-2" d="M216,216c0,119.29-96.71,216-216,216V216Z"/><path class="cls-3" d="M432,216C312.71,216,216,119.29,216,0H432Z"/><path class="cls-2" d="M0,648C0,528.71,96.71,432,216,432V648Z"/><path class="cls-3" d="M432,648c-119.29,0-216-96.71-216-216H432Z"/><path class="cls-4" d="M216,216c119.29,0,216,96.71,216,216H216Z"/><path class="cls-3" d="M216,648c0,119.29-96.71,216-216,216V648Z"/><path class="cls-4" d="M216,864c0,119.29-96.71,216-216,216V864Z"/><path class="cls-3" d="M432,216C432,96.71,528.71,0,648,0V216Z"/><path class="cls-3" d="M648,432c-119.29,0-216-96.71-216-216H648Z"/><path class="cls-4" d="M648,432c0,119.29-96.71,216-216,216V432Z"/><path class="cls-3" d="M432,864c-119.29,0-216-96.71-216-216H432Z"/><path class="cls-3" d="M216,864c119.29,0,216,96.71,216,216H216Z"/><path class="cls-2" d="M864,0c0,119.29-96.71,216-216,216V0Z"/><path class="cls-4" d="M864,216c0,119.29-96.71,216-216,216V216Z"/><path class="cls-4" d="M1080,216C960.71,216,864,119.29,864,0h216Z"/><path class="cls-2" d="M648,648c0-119.29,96.71-216,216-216V648Z"/><path class="cls-1" d="M1080,648c-119.29,0-216-96.71-216-216h216Z"/><path class="cls-2" d="M864,216c119.29,0,216,96.71,216,216H864Z"/><path d="M864,864c0,119.29-96.71,216-216,216V864Z"/><path class="cls-4" d="M1080,864c-119.29,0-216-96.71-216-216h216Z"/><path class="cls-3" d="M864,864c119.29,0,216,96.71,216,216H864Z"/><path class="cls-2" d="M432,864c0-119.29,96.71-216,216-216V864Z"/><path class="cls-1" d="M648,1080c-119.29,0-216-96.71-216-216H648Z"/><path class="cls-2" d="M648,648c119.29,0,216,96.71,216,216H648Z"/><path class="cls-2" d="M864,864c0,119.29-96.71,216-216,216V864Z"/><path class="cls-1" d="M1728,1080c0-119.29,96.71-216,216-216v216Z"/><path class="cls-3" d="M1728,864c0-119.29,96.71-216,216-216V864Z"/><path class="cls-3" d="M1512,864c119.29,0,216,96.71,216,216H1512Z"/><path class="cls-2" d="M1944,432c0,119.29-96.71,216-216,216V432Z"/><path class="cls-3" d="M1512,432c119.29,0,216,96.71,216,216H1512Z"/><path class="cls-4" d="M1728,864c-119.29,0-216-96.71-216-216h216Z"/><path class="cls-3" d="M1728,432c0-119.29,96.71-216,216-216V432Z"/><path class="cls-4" d="M1728,216c0-119.29,96.71-216,216-216V216Z"/><path class="cls-2" d="M1512,864c0,119.29-96.71,216-216,216V864Z"/><path class="cls-3" d="M1296,648c119.29,0,216,96.71,216,216H1296Z"/><path class="cls-2" d="M1296,648c0-119.29,96.71-216,216-216V648Z"/><path class="cls-1" d="M1512,216c119.29,0,216,96.71,216,216H1512Z"/><path class="cls-3" d="M1728,216c-119.29,0-216-96.71-216-216h216Z"/><path class="cls-4" d="M1080,1080c0-119.29,96.71-216,216-216v216Z"/><path class="cls-4" d="M1080,864c0-119.29,96.71-216,216-216V864Z"/><path class="cls-2" d="M1296,432c0,119.29-96.71,216-216,216V432Z"/><path d="M1080,216c0-119.29,96.71-216,216-216V216Z"/><path class="cls-3" d="M1512,216c0,119.29-96.71,216-216,216V216Z"/><path class="cls-4" d="M1296,0c119.29,0,216,96.71,216,216H1296Z"/><path class="cls-4" d="M1296,432c-119.29,0-216-96.71-216-216h216Z"/><path class="cls-3" d="M1080,216c0-119.29,96.71-216,216-216V216Z"/></g></g></svg>